<mxfile host="app.diagrams.net" agent="Mozilla/5.0 (X11; Ubuntu; Linux x86_64; rv:130.0) Gecko/20100101 Firefox/130.0" version="25.0.3">
  <diagram name="Page-1" id="HFFRkxdLWE5YDhGh8fER">
    <mxGraphModel dx="441" dy="761" grid="1" gridSize="10" guides="1" tooltips="1" connect="1" arrows="1" fold="1" page="1" pageScale="1" pageWidth="1169" pageHeight="826" math="0" shadow="0">
      <root>
        <mxCell id="0" />
        <mxCell id="1" parent="0" />
        <mxCell id="EDXHS6EJhSH5jY5PzywB-1" value="&lt;div&gt;Dev&lt;/div&gt;&lt;div&gt;&lt;br&gt;&lt;/div&gt;" style="points=[];aspect=fixed;html=1;align=center;shadow=0;dashed=0;fillColor=#FF6A00;strokeColor=none;shape=mxgraph.alibaba_cloud.user;" vertex="1" parent="1">
          <mxGeometry x="254" y="330" width="60" height="60" as="geometry" />
        </mxCell>
        <mxCell id="EDXHS6EJhSH5jY5PzywB-2" value="&lt;div&gt;Product&amp;nbsp;&lt;/div&gt;&lt;div&gt;Owner&lt;/div&gt;&lt;div&gt;&lt;br&gt;&lt;/div&gt;" style="points=[];aspect=fixed;html=1;align=center;shadow=0;dashed=0;fillColor=#FF6A00;strokeColor=none;shape=mxgraph.alibaba_cloud.user;" vertex="1" parent="1">
          <mxGeometry x="30" y="330" width="60" height="60" as="geometry" />
        </mxCell>
        <mxCell id="EDXHS6EJhSH5jY5PzywB-3" value="Ticket System" style="image;html=1;image=img/lib/atlassian/Jira_Logo.svg;" vertex="1" parent="1">
          <mxGeometry x="120" y="318" width="72" height="72" as="geometry" />
        </mxCell>
        <mxCell id="EDXHS6EJhSH5jY5PzywB-4" value="Git Repo" style="verticalLabelPosition=bottom;html=1;verticalAlign=top;align=center;strokeColor=none;fillColor=#00BEF2;shape=mxgraph.azure.git_repository;" vertex="1" parent="1">
          <mxGeometry x="380" y="330" width="50" height="50" as="geometry" />
        </mxCell>
        <mxCell id="EDXHS6EJhSH5jY5PzywB-8" value="&lt;div&gt;Kubernetes&lt;/div&gt;&lt;div&gt;Services&lt;br&gt;&lt;/div&gt;" style="image;aspect=fixed;html=1;points=[];align=center;fontSize=12;image=img/lib/azure2/containers/Kubernetes_Services.svg;" vertex="1" parent="1">
          <mxGeometry x="140" y="684.5" width="68" height="60" as="geometry" />
        </mxCell>
        <mxCell id="EDXHS6EJhSH5jY5PzywB-9" value="&lt;div&gt;Container&lt;/div&gt;&lt;div&gt;Registries&lt;br&gt;&lt;/div&gt;" style="image;aspect=fixed;html=1;points=[];align=center;fontSize=12;image=img/lib/azure2/containers/Container_Registries.svg;" vertex="1" parent="1">
          <mxGeometry x="362" y="680" width="68" height="61" as="geometry" />
        </mxCell>
        <mxCell id="EDXHS6EJhSH5jY5PzywB-10" value="&lt;div&gt;Container&lt;/div&gt;&lt;div&gt;Instances&lt;/div&gt;&lt;div&gt;&lt;br&gt;&lt;/div&gt;" style="image;aspect=fixed;html=1;points=[];align=center;fontSize=12;image=img/lib/azure2/containers/Container_Instances.svg;" vertex="1" parent="1">
          <mxGeometry x="250" y="680" width="64" height="69" as="geometry" />
        </mxCell>
        <mxCell id="EDXHS6EJhSH5jY5PzywB-12" value="&lt;div&gt;Code Build&lt;/div&gt;" style="text;html=1;align=center;verticalAlign=middle;resizable=0;points=[];autosize=1;strokeColor=none;fillColor=none;" vertex="1" parent="1">
          <mxGeometry x="590" y="350" width="80" height="30" as="geometry" />
        </mxCell>
        <mxCell id="EDXHS6EJhSH5jY5PzywB-13" value="&lt;div&gt;Code Deploy&lt;/div&gt;" style="text;html=1;align=center;verticalAlign=middle;resizable=0;points=[];autosize=1;strokeColor=none;fillColor=none;" vertex="1" parent="1">
          <mxGeometry x="760" y="580" width="90" height="30" as="geometry" />
        </mxCell>
        <mxCell id="EDXHS6EJhSH5jY5PzywB-15" value="Code Commit" style="text;html=1;align=center;verticalAlign=middle;resizable=0;points=[];autosize=1;strokeColor=none;fillColor=none;" vertex="1" parent="1">
          <mxGeometry x="451" y="348" width="100" height="30" as="geometry" />
        </mxCell>
        <mxCell id="EDXHS6EJhSH5jY5PzywB-16" value="&lt;div&gt;Ticket Template -&amp;gt;&lt;br&gt;&lt;/div&gt;&lt;div&gt;Project configuration -&amp;gt;&lt;br&gt;&lt;/div&gt;&lt;div&gt;&lt;br&gt;&lt;/div&gt;" style="text;html=1;align=center;verticalAlign=middle;resizable=0;points=[];autosize=1;strokeColor=none;fillColor=none;" vertex="1" parent="1">
          <mxGeometry x="80" y="420" width="150" height="60" as="geometry" />
        </mxCell>
        <mxCell id="EDXHS6EJhSH5jY5PzywB-17" value="&lt;div&gt;Unit Test&lt;/div&gt;&lt;div&gt;Lint&lt;/div&gt;&lt;div&gt; Software Composition Analysis (SCA)&lt;/div&gt;&lt;div&gt;Static Application Security Testing (SAST)&lt;/div&gt;" style="text;html=1;align=center;verticalAlign=middle;resizable=0;points=[];autosize=1;strokeColor=none;fillColor=none;" vertex="1" parent="1">
          <mxGeometry x="505" y="400" width="250" height="70" as="geometry" />
        </mxCell>
        <mxCell id="EDXHS6EJhSH5jY5PzywB-18" value="&lt;div&gt;Teams&lt;/div&gt;&lt;div&gt;&lt;br&gt;&lt;/div&gt;" style="sketch=0;pointerEvents=1;shadow=0;dashed=0;html=1;strokeColor=none;fillColor=#DF8C42;labelPosition=center;verticalLabelPosition=bottom;verticalAlign=top;align=center;outlineConnect=0;shape=mxgraph.veeam2.microsoft_teams;" vertex="1" parent="1">
          <mxGeometry x="613" y="528" width="34" height="34" as="geometry" />
        </mxCell>
        <mxCell id="EDXHS6EJhSH5jY5PzywB-19" value="Alert Pass/Failures to developer" style="text;html=1;align=center;verticalAlign=middle;resizable=0;points=[];autosize=1;strokeColor=none;fillColor=none;" vertex="1" parent="1">
          <mxGeometry x="527" y="482" width="190" height="30" as="geometry" />
        </mxCell>
        <mxCell id="EDXHS6EJhSH5jY5PzywB-21" value="Dynamic Application Security Testing (DAST)" style="text;html=1;align=center;verticalAlign=middle;resizable=0;points=[];autosize=1;strokeColor=none;fillColor=none;" vertex="1" parent="1">
          <mxGeometry x="631" y="628" width="260" height="30" as="geometry" />
        </mxCell>
        <mxCell id="EDXHS6EJhSH5jY5PzywB-22" value="&lt;div&gt;Git Branch Methodology -&amp;gt;&lt;br&gt;&lt;/div&gt;&lt;div&gt;Versioning -&amp;gt;&lt;/div&gt;&lt;div&gt;Template -&amp;gt;&lt;/div&gt;&lt;div&gt;IDE Config -&amp;gt;&lt;/div&gt;&lt;div&gt;&lt;br&gt;&lt;/div&gt;&lt;div&gt;&lt;br&gt;&lt;/div&gt;" style="text;html=1;align=center;verticalAlign=middle;resizable=0;points=[];autosize=1;strokeColor=none;fillColor=none;" vertex="1" parent="1">
          <mxGeometry x="320" y="413" width="170" height="100" as="geometry" />
        </mxCell>
        <mxCell id="EDXHS6EJhSH5jY5PzywB-23" value="&lt;div&gt;DEV Env&lt;/div&gt;" style="rounded=1;whiteSpace=wrap;html=1;" vertex="1" parent="1">
          <mxGeometry x="930" y="580" width="120" height="60" as="geometry" />
        </mxCell>
        <mxCell id="EDXHS6EJhSH5jY5PzywB-24" value="&lt;div&gt;QA Env&lt;/div&gt;" style="rounded=1;whiteSpace=wrap;html=1;" vertex="1" parent="1">
          <mxGeometry x="930" y="684.5" width="120" height="60" as="geometry" />
        </mxCell>
        <mxCell id="EDXHS6EJhSH5jY5PzywB-25" value="&lt;div&gt;UAT Env&lt;/div&gt;" style="rounded=1;whiteSpace=wrap;html=1;" vertex="1" parent="1">
          <mxGeometry x="930" y="790" width="120" height="60" as="geometry" />
        </mxCell>
        <mxCell id="EDXHS6EJhSH5jY5PzywB-26" value="&lt;div&gt;PROD Env&lt;/div&gt;" style="rounded=1;whiteSpace=wrap;html=1;" vertex="1" parent="1">
          <mxGeometry x="930" y="870" width="120" height="60" as="geometry" />
        </mxCell>
        <mxCell id="EDXHS6EJhSH5jY5PzywB-27" value="Commit Template" style="text;html=1;align=center;verticalAlign=middle;resizable=0;points=[];autosize=1;strokeColor=none;fillColor=none;" vertex="1" parent="1">
          <mxGeometry x="441" y="398" width="120" height="30" as="geometry" />
        </mxCell>
      </root>
    </mxGraphModel>
  </diagram>
</mxfile>
